<svg id="rocket" version="1.1" xmlns="http://www.w3.org/2000/svg" width="32" height="32" viewBox="0 0 64 64">
  <path fill="#AAAAAA" d="M42.057,37.732c0,0,4.139-25.58-9.78-36.207c-0.307-0.233-0.573-0.322-0.802-0.329
                          c-0.227,0.002-0.493,0.083-0.796,0.311c-13.676,10.31-8.95,35.992-8.95,35.992c-10.18,8-7.703,9.151-1.894,23.262
                          c1.108,2.693,3.048,2.06,3.926,0.115c0.877-1.943,2.815-6.232,2.815-6.232l11.029,0.128c0,0,2.035,4.334,2.959,6.298
                          c0.922,1.965,2.877,2.644,3.924-0.024C49.974,47.064,52.423,45.969,42.057,37.732z M31.726,23.155
                          c-2.546-0.03-4.633-2.118-4.664-4.665c-0.029-2.547,2.012-4.587,4.559-4.558c2.546,0.029,4.634,2.117,4.663,4.664
                          C36.314,21.143,34.272,23.184,31.726,23.155z"></path>
</svg>
